<mxfile host="app.diagrams.net" modified="2022-01-28T15:05:08.498Z" agent="5.0 (Windows NT 10.0; Win64; x64) AppleWebKit/537.36 (KHTML, like Gecko) Chrome/97.0.4692.99 Safari/537.36" etag="y7GeG0R3Frhu40AuV8Se" version="16.5.1" type="github">
  <diagram id="1JeY60_LB5EDOYDjVPQe" name="Page-1">
    <mxGraphModel dx="825" dy="524" grid="1" gridSize="10" guides="1" tooltips="1" connect="1" arrows="1" fold="1" page="1" pageScale="1" pageWidth="827" pageHeight="1169" math="0" shadow="0">
      <root>
        <mxCell id="0" />
        <mxCell id="1" parent="0" />
        <mxCell id="uUXFVf64uywFX2VaBflz-3" value="" style="sketch=0;pointerEvents=1;shadow=0;dashed=0;html=1;strokeColor=none;fillColor=#505050;labelPosition=center;verticalLabelPosition=bottom;verticalAlign=top;outlineConnect=0;align=center;shape=mxgraph.office.services.excel_services;" vertex="1" parent="1">
          <mxGeometry x="40" y="40" width="90" height="70" as="geometry" />
        </mxCell>
        <mxCell id="uUXFVf64uywFX2VaBflz-6" value="" style="sketch=0;pointerEvents=1;shadow=0;dashed=0;html=1;strokeColor=none;fillColor=#505050;labelPosition=center;verticalLabelPosition=bottom;verticalAlign=top;outlineConnect=0;align=center;shape=mxgraph.office.concepts.settings;rotation=11.2;" vertex="1" parent="1">
          <mxGeometry x="98.91" y="76" width="80" height="80" as="geometry" />
        </mxCell>
        <mxCell id="uUXFVf64uywFX2VaBflz-7" value="" style="sketch=0;pointerEvents=1;shadow=0;dashed=0;html=1;strokeColor=none;fillColor=#1673BA;labelPosition=center;verticalLabelPosition=bottom;verticalAlign=top;outlineConnect=0;align=center;shape=mxgraph.office.communications.email_workloaad;" vertex="1" parent="1">
          <mxGeometry x="63" y="135.89" width="57" height="47" as="geometry" />
        </mxCell>
        <mxCell id="uUXFVf64uywFX2VaBflz-10" value="" style="endArrow=none;dashed=1;html=1;dashPattern=1 3;strokeWidth=2;rounded=0;" edge="1" parent="1">
          <mxGeometry width="50" height="50" relative="1" as="geometry">
            <mxPoint x="20" y="200" as="sourcePoint" />
            <mxPoint x="20" y="30" as="targetPoint" />
          </mxGeometry>
        </mxCell>
        <mxCell id="uUXFVf64uywFX2VaBflz-11" value="" style="endArrow=none;dashed=1;html=1;dashPattern=1 3;strokeWidth=2;rounded=0;" edge="1" parent="1">
          <mxGeometry width="50" height="50" relative="1" as="geometry">
            <mxPoint x="190" y="201" as="sourcePoint" />
            <mxPoint x="190" y="31" as="targetPoint" />
          </mxGeometry>
        </mxCell>
      </root>
    </mxGraphModel>
  </diagram>
</mxfile>
